<svg viewBox="0 0 512 512" xmlns="http://www.w3.org/2000/svg"><text x="729.64" y="231.36"><tspan x="729.64" y="231.36"/></text><text transform="scale(4.0128 .2492)" x="378.91" y="579.25"/><text x="1310.91" y="151.36"><tspan x="1310.91" y="151.36"/></text><text transform="scale(4.0128 .2492)" x="523.76" y="258.22"/><text x="239.33" y="-29.901"><tspan x="239.33" y="-29.901"/></text><text transform="scale(4.0128 .2492)" x="256.72" y="-469.14"/><text x="1337.38" y="-246.37"><tspan x="1337.38" y="-246.37"/></text><text transform="scale(4.0128 .2492)" x="530.36" y="-1337.8"/><text x="1918.65" y="-326.38"><tspan x="1918.65" y="-326.38"/></text><text transform="scale(4.0128 .2492)" x="675.21" y="-1658.84"/><text x="1529.53" y="-798.78"><tspan x="1529.53" y="-798.78"/></text><text transform="scale(4.0128 .2492)" x="578.24" y="-3554.49"/><text x="2110.79" y="-878.78"><tspan x="2110.79" y="-878.78"/></text><text transform="scale(4.0128 .2492)" x="723.09" y="-3875.52"/><text x="277.99" y="535.94"><tspan x="277.99" y="535.94"/></text><text x="-1745.96" y="270.87"><tspan x="-1745.96" y="270.87"/></text><text transform="scale(4.0128 .2492)" x="-238.01" y="737.79"/><text x="-1164.69" y="190.87"><tspan x="-1164.69" y="190.87"/></text><text transform="scale(4.0128 .2492)" x="-93.17" y="416.76"/><text x="-2236.27" y="9.608"><tspan x="-2236.27" y="9.608"/></text><text transform="scale(4.0128 .2492)" x="-360.2" y="-310.6"/><text x="-1138.22" y="-206.86"><tspan x="-1138.22" y="-206.86"/></text><text transform="scale(4.0128 .2492)" x="-86.57" y="-1179.26"/><text x="-556.95" y="-286.87"><tspan x="-556.95" y="-286.87"/></text><text transform="scale(4.0128 .2492)" x="58.28" y="-1500.3"/><text x="-946.07" y="-759.27"><tspan x="-946.07" y="-759.27"/></text><text transform="scale(4.0128 .2492)" x="-38.686" y="-3395.95"/><text x="-364.81" y="-839.27"><tspan x="-364.81" y="-839.27"/></text><text transform="scale(4.0128 .2492)" x="106.16" y="-3716.98"/><text x="-2197.61" y="575.45"><tspan x="-2197.61" y="575.45"/></text><text x="-1144.61" y="525.1"><tspan x="-1144.61" y="525.1"/></text><text transform="scale(4.0128 .2492)" x="-88.16" y="1757.96"/><text x="-563.34" y="445.1"><tspan x="-563.34" y="445.1"/></text><text transform="scale(4.0128 .2492)" x="56.693" y="1436.93"/><text x="-1634.92" y="263.84"><tspan x="-1634.92" y="263.84"/></text><text transform="scale(4.0128 .2492)" x="-210.35" y="709.58"/><text x="-536.87" y="47.37"><tspan x="-536.87" y="47.37"/></text><text transform="scale(4.0128 .2492)" x="63.29" y="-159.09"/><text x="44.4" y="-32.643"><tspan x="44.4" y="-32.643"/></text><text transform="scale(4.0128 .2492)" x="208.14" y="-480.13"/><text x="-344.72" y="-505.04"><tspan x="-344.72" y="-505.04"/></text><text transform="scale(4.0128 .2492)" x="111.17" y="-2375.78"/><text x="236.54" y="-585.04"><tspan x="236.54" y="-585.04"/></text><text transform="scale(4.0128 .2492)" x="256.02" y="-2696.8"/><text x="-1596.26" y="829.68"><tspan x="-1596.26" y="829.68"/></text><text x="1403.27" y="246.55"><tspan x="1403.27" y="246.55"/></text><text transform="scale(4.0128 .2492)" x="546.78" y="640.19"/><text x="1984.54" y="166.55"><tspan x="1984.54" y="166.55"/></text><text transform="scale(4.0128 .2492)" x="691.63" y="319.16"/><text x="912.96" y="-14.715"><tspan x="912.96" y="-14.715"/></text><text transform="scale(4.0128 .2492)" x="424.59" y="-408.2"/><text x="2011.01" y="-231.18"><tspan x="2011.01" y="-231.18"/></text><text transform="scale(4.0128 .2492)" x="698.23" y="-1276.86"/><text x="2592.28" y="-311.19"><tspan x="2592.28" y="-311.19"/></text><text transform="scale(4.0128 .2492)" x="843.08" y="-1597.9"/><text x="2203.16" y="-783.59"><tspan x="2203.16" y="-783.59"/></text><text transform="scale(4.0128 .2492)" x="746.11" y="-3493.55"/><text x="2784.42" y="-863.59"><tspan x="2784.42" y="-863.59"/></text><text transform="scale(4.0128 .2492)" x="890.96" y="-3814.58"/><text x="951.62" y="551.13"><tspan x="951.62" y="551.13"/></text><text x="1403.27" y="246.55"><tspan x="1403.27" y="246.55"/></text><text transform="scale(4.0128 .2492)" x="546.78" y="640.19"/><text x="1984.54" y="166.55"><tspan x="1984.54" y="166.55"/></text><text transform="scale(4.0128 .2492)" x="691.63" y="319.16"/><text x="912.96" y="-14.715"><tspan x="912.96" y="-14.715"/></text><text transform="scale(4.0128 .2492)" x="424.59" y="-408.2"/><text x="2011.01" y="-231.18"><tspan x="2011.01" y="-231.18"/></text><text transform="scale(4.0128 .2492)" x="698.23" y="-1276.85"/><text x="2592.28" y="-311.19"><tspan x="2592.28" y="-311.19"/></text><text transform="scale(4.0128 .2492)" x="843.08" y="-1597.89"/><text x="2203.16" y="-783.59"><tspan x="2203.16" y="-783.59"/></text><text transform="scale(4.0128 .2492)" x="746.11" y="-3493.53"/><text x="2784.42" y="-863.59"><tspan x="2784.42" y="-863.59"/></text><text transform="scale(4.0128 .2492)" x="890.96" y="-3814.56"/><text x="951.62" y="551.13"><tspan x="951.62" y="551.13"/></text><text x="729.64" y="231.36"><tspan x="729.64" y="231.36"/></text><text transform="scale(4.0128 .2492)" x="378.91" y="579.26"/><text x="1310.91" y="151.36"><tspan x="1310.91" y="151.36"/></text><text transform="scale(4.0128 .2492)" x="523.76" y="258.22"/><text x="239.33" y="-29.9"><tspan x="239.33" y="-29.9"/></text><text transform="scale(4.0128 .2492)" x="256.72" y="-469.13"/><text x="1337.38" y="-246.37"><tspan x="1337.38" y="-246.37"/></text><text transform="scale(4.0128 .2492)" x="530.36" y="-1337.8"/><text x="1918.65" y="-326.37"><tspan x="1918.65" y="-326.37"/></text><text transform="scale(4.0128 .2492)" x="675.21" y="-1658.83"/><text x="1529.53" y="-798.77"><tspan x="1529.53" y="-798.77"/></text><text transform="scale(4.0128 .2492)" x="578.24" y="-3554.48"/><text x="2110.79" y="-878.78"><tspan x="2110.79" y="-878.78"/></text><text transform="scale(4.0128 .2492)" x="723.09" y="-3875.52"/><text x="277.99" y="535.94"><tspan x="277.99" y="535.94"/></text><text x="729.64" y="231.36"><tspan x="729.64" y="231.36"/></text><text transform="scale(4.0128 .2492)" x="378.91" y="579.26"/><text x="1310.91" y="151.36"><tspan x="1310.91" y="151.36"/></text><text transform="scale(4.0128 .2492)" x="523.76" y="258.22"/><text x="239.33" y="-29.9"><tspan x="239.33" y="-29.9"/></text><text transform="scale(4.0128 .2492)" x="256.72" y="-469.13"/><text x="1337.38" y="-246.37"><tspan x="1337.38" y="-246.37"/></text><text transform="scale(4.0128 .2492)" x="530.36" y="-1337.8"/><text x="1918.65" y="-326.37"><tspan x="1918.65" y="-326.37"/></text><text transform="scale(4.0128 .2492)" x="675.21" y="-1658.83"/><text x="1529.53" y="-798.77"><tspan x="1529.53" y="-798.77"/></text><text transform="scale(4.0128 .2492)" x="578.24" y="-3554.48"/><text x="2110.79" y="-878.78"><tspan x="2110.79" y="-878.78"/></text><text transform="scale(4.0128 .2492)" x="723.09" y="-3875.52"/><text x="277.99" y="535.94"><tspan x="277.99" y="535.94"/></text><text x="1317.57" y="129.39"><tspan x="1317.57" y="129.39"/></text><text transform="scale(4.0128 .2492)" x="525.42" y="170.08"/><text x="1898.84" y="49.39"><tspan x="1898.84" y="49.39"/></text><text transform="scale(4.0128 .2492)" x="670.27" y="-150.95"/><text x="827.26" y="-131.87"><tspan x="827.26" y="-131.87"/></text><text transform="scale(4.0128 .2492)" x="403.23" y="-878.31"/><text x="1925.31" y="-348.34"><tspan x="1925.31" y="-348.34"/></text><text transform="scale(4.0128 .2492)" x="676.87" y="-1746.97"/><text x="2506.58" y="-428.35"><tspan x="2506.58" y="-428.35"/></text><text transform="scale(4.0128 .2492)" x="821.72" y="-2068.01"/><text x="2117.46" y="-900.75"><tspan x="2117.46" y="-900.75"/></text><text transform="scale(4.0128 .2492)" x="724.75" y="-3963.66"/><text x="2698.72" y="-980.75"><tspan x="2698.72" y="-980.75"/></text><text transform="scale(4.0128 .2492)" x="869.6" y="-4284.69"/><text x="865.92" y="433.97"><tspan x="865.92" y="433.97"/></text><text x="729.64" y="231.36"><tspan x="729.64" y="231.36"/></text><text transform="scale(4.0128 .2492)" x="378.91" y="579.25"/><text x="1310.91" y="151.36"><tspan x="1310.91" y="151.36"/></text><text transform="scale(4.0128 .2492)" x="523.76" y="258.22"/><text x="239.33" y="-29.901"><tspan x="239.33" y="-29.901"/></text><text transform="scale(4.0128 .2492)" x="256.72" y="-469.14"/><text x="1337.38" y="-246.37"><tspan x="1337.38" y="-246.37"/></text><text transform="scale(4.0128 .2492)" x="530.36" y="-1337.8"/><text x="1918.65" y="-326.38"><tspan x="1918.65" y="-326.38"/></text><text transform="scale(4.0128 .2492)" x="675.21" y="-1658.84"/><text x="1529.53" y="-798.78"><tspan x="1529.53" y="-798.78"/></text><text transform="scale(4.0128 .2492)" x="578.24" y="-3554.49"/><text x="2110.79" y="-878.78"><tspan x="2110.79" y="-878.78"/></text><text transform="scale(4.0128 .2492)" x="723.09" y="-3875.52"/><text x="277.99" y="535.94"><tspan x="277.99" y="535.94"/></text><text x="-877.95" y="88.17"><tspan x="-877.95" y="88.17"/></text><text transform="scale(4.0128 .2492)" x="-21.706" y="4.666"/><text x="-296.68" y="8.174"><tspan x="-296.68" y="8.174"/></text><text transform="scale(4.0128 .2492)" x="123.14" y="-316.36"/><text x="-1368.26" y="-173.09"><tspan x="-1368.26" y="-173.09"/></text><text transform="scale(4.0128 .2492)" x="-143.9" y="-1043.72"/><text x="-270.21" y="-389.56"><tspan x="-270.21" y="-389.56"/></text><text transform="scale(4.0128 .2492)" x="129.74" y="-1912.38"/><text x="311.06" y="-469.57"><tspan x="311.06" y="-469.57"/></text><text transform="scale(4.0128 .2492)" x="274.59" y="-2233.42"/><text x="-78.06" y="-941.97"><tspan x="-78.06" y="-941.97"/></text><text transform="scale(4.0128 .2492)" x="177.62" y="-4129.07"/><text x="503.2" y="-1021.97"><tspan x="503.2" y="-1021.97"/></text><text transform="scale(4.0128 .2492)" x="322.47" y="-4450.1"/><text x="-1329.6" y="392.75"><tspan x="-1329.6" y="392.75"/></text><text x="-1758.51" y="-104.32"><tspan x="-1758.51" y="-104.32"/></text><text transform="scale(4.0128 .2492)" x="-120.49" y="-981.51"/><text x="-2406.27" y="-872.27"><tspan x="-2406.27" y="-872.27"/></text><text transform="scale(4.0128 .2492)" x="-281.92" y="-4063.17"/><text x="-1699.93" y="-1027.9"><tspan x="-1699.93" y="-1027.9"/></text><text transform="scale(4.0128 .2492)" x="-105.9" y="-4687.7"/><text x="-802.02" y="183.63"><tspan x="-802.02" y="183.63"/></text><text transform="scale(4.0128 .2492)" x="-2.784" y="387.72"/><text x="-220.75" y="103.63"><tspan x="-220.75" y="103.63"/></text><text transform="scale(4.0128 .2492)" x="142.07" y="66.69"/><text x="-1292.33" y="-77.63"><tspan x="-1292.33" y="-77.63"/></text><text transform="scale(4.0128 .2492)" x="-124.97" y="-660.66"/><text x="-194.28" y="-294.1"><tspan x="-194.28" y="-294.1"/></text><text transform="scale(4.0128 .2492)" x="148.67" y="-1529.33"/><text x="386.99" y="-374.11"><tspan x="386.99" y="-374.11"/></text><text transform="scale(4.0128 .2492)" x="293.51" y="-1850.37"/><text x="-2.131" y="-846.51"><tspan x="-2.131" y="-846.51"/></text><text transform="scale(4.0128 .2492)" x="196.55" y="-3746.02"/><text x="579.13" y="-926.51"><tspan x="579.13" y="-926.51"/></text><text transform="scale(4.0128 .2492)" x="341.39" y="-4067.05"/><text x="-1253.67" y="488.21"><tspan x="-1253.67" y="488.21"/></text><text x="-596.63" y="686.33"><tspan x="-596.63" y="686.33"/></text><text transform="scale(4.0128 .2492)" x="48.4" y="2404.96"/><text x="-15.356" y="606.33"><tspan x="-15.356" y="606.33"/></text><text transform="scale(4.0128 .2492)" x="193.25" y="2083.93"/><text x="-1086.94" y="425.07"><tspan x="-1086.94" y="425.07"/></text><text transform="scale(4.0128 .2492)" x="-73.79" y="1356.58"/><text x="11.11" y="208.6"><tspan x="11.11" y="208.6"/></text><text transform="scale(4.0128 .2492)" x="199.85" y="487.91"/><text x="592.38" y="128.59"><tspan x="592.38" y="128.59"/></text><text transform="scale(4.0128 .2492)" x="344.7" y="166.87"/><text x="203.26" y="-343.81"><tspan x="203.26" y="-343.81"/></text><text transform="scale(4.0128 .2492)" x="247.73" y="-1728.78"/><text x="784.52" y="-423.81"><tspan x="784.52" y="-423.81"/></text><text transform="scale(4.0128 .2492)" x="392.58" y="-2049.81"/><text x="-1048.28" y="990.91"><tspan x="-1048.28" y="990.91"/></text><text x="-1540.36" y="608.23"><tspan x="-1540.36" y="608.23"/></text><text transform="scale(4.0128 .2492)" x="-186.78" y="2091.55"/><text x="-959.09" y="528.23"><tspan x="-959.09" y="528.23"/></text><text transform="scale(4.0128 .2492)" x="-41.928" y="1770.52"/><text x="-2030.67" y="346.97"><tspan x="-2030.67" y="346.97"/></text><text transform="scale(4.0128 .2492)" x="-308.97" y="1043.17"/><text x="-932.62" y="130.5"><tspan x="-932.62" y="130.5"/></text><text transform="scale(4.0128 .2492)" x="-35.33" y="174.5"/><text x="-351.35" y="50.49"><tspan x="-351.35" y="50.49"/></text><text transform="scale(4.0128 .2492)" x="109.52" y="-146.54"/><text x="-740.47" y="-421.91"><tspan x="-740.47" y="-421.91"/></text><text transform="scale(4.0128 .2492)" x="12.551" y="-2042.19"/><text x="-159.21" y="-501.91"><tspan x="-159.21" y="-501.91"/></text><text transform="scale(4.0128 .2492)" x="157.4" y="-2363.22"/><text x="-1992.01" y="912.81"><tspan x="-1992.01" y="912.81"/></text><text x="-1292.9" y="683.07"><tspan x="-1292.9" y="683.07"/></text><text transform="scale(4.0128 .2492)" x="-125.11" y="2391.89"/><text x="-711.63" y="603.07"><tspan x="-711.63" y="603.07"/></text><text transform="scale(4.0128 .2492)" x="19.737" y="2070.86"/><text x="-1783.21" y="421.81"><tspan x="-1783.21" y="421.81"/></text><text transform="scale(4.0128 .2492)" x="-247.3" y="1343.51"/><text x="-685.16" y="205.34"><tspan x="-685.16" y="205.34"/></text><text transform="scale(4.0128 .2492)" x="26.337" y="474.84"/><text x="-103.89" y="125.33"><tspan x="-103.89" y="125.33"/></text><text transform="scale(4.0128 .2492)" x="171.19" y="153.8"/><text x="-493.01" y="-347.07"><tspan x="-493.01" y="-347.07"/></text><text transform="scale(4.0128 .2492)" x="74.22" y="-1741.85"/><text x="88.25" y="-427.07"><tspan x="88.25" y="-427.07"/></text><text transform="scale(4.0128 .2492)" x="219.07" y="-2062.87"/><text x="-1744.55" y="987.65"><tspan x="-1744.55" y="987.65"/></text><text x="-2158.94" y=".817"><tspan x="-2158.94" y=".817"/></text><text transform="scale(4.0128 .2492)" x="-340.93" y="-345.88"/><text x="-1577.67" y="-79.18"><tspan x="-1577.67" y="-79.18"/></text><text transform="scale(4.0128 .2492)" x="-196.08" y="-666.91"/><text x="-2649.25" y="-260.44"><tspan x="-2649.25" y="-260.44"/></text><text transform="scale(4.0128 .2492)" x="-463.12" y="-1394.26"/><text x="-1551.2" y="-476.91"><tspan x="-1551.2" y="-476.91"/></text><text transform="scale(4.0128 .2492)" x="-189.48" y="-2262.93"/><text x="-969.93" y="-556.92"><tspan x="-969.93" y="-556.92"/></text><text transform="scale(4.0128 .2492)" x="-44.632" y="-2583.97"/><text x="-1359.05" y="-1029.32"><tspan x="-1359.05" y="-1029.32"/></text><text transform="scale(4.0128 .2492)" x="-141.6" y="-4479.62"/><text x="-777.79" y="-1109.32"><tspan x="-777.79" y="-1109.32"/></text><text transform="scale(4.0128 .2492)" x="3.248" y="-4800.65"/><text x="-2610.59" y="305.4"><tspan x="-2610.59" y="305.4"/></text><text x="-3039.5" y="-191.68"><tspan x="-3039.5" y="-191.68"/></text><text transform="scale(4.0128 .2492)" x="-439.72" y="-1332.06"/><text x="-3687.26" y="-959.63"><tspan x="-3687.26" y="-959.63"/></text><text transform="scale(4.0128 .2492)" x="-601.14" y="-4413.72"/><text x="-2980.92" y="-1115.26"><tspan x="-2980.92" y="-1115.26"/></text><text transform="scale(4.0128 .2492)" x="-425.12" y="-5038.25"/><text x="-2508.23" y="170.04"><tspan x="-2508.23" y="170.04"/></text><text transform="scale(4.0128 .2492)" x="-427.97" y="333.17"/><text x="-1926.96" y="90.04"><tspan x="-1926.96" y="90.04"/></text><text transform="scale(4.0128 .2492)" x="-283.12" y="12.143"/><text x="-2998.54" y="-91.22"><tspan x="-2998.54" y="-91.22"/></text><text transform="scale(4.0128 .2492)" x="-550.16" y="-715.21"/><text x="-1900.49" y="-307.69"><tspan x="-1900.49" y="-307.69"/></text><text transform="scale(4.0128 .2492)" x="-276.52" y="-1583.88"/><text x="-1319.22" y="-387.7"><tspan x="-1319.22" y="-387.7"/></text><text transform="scale(4.0128 .2492)" x="-131.68" y="-1904.92"/><text x="-1708.34" y="-860.1"><tspan x="-1708.34" y="-860.1"/></text><text transform="scale(4.0128 .2492)" x="-228.64" y="-3800.57"/><text x="-1127.08" y="-940.1"><tspan x="-1127.08" y="-940.1"/></text><text transform="scale(4.0128 .2492)" x="-83.8" y="-4121.6"/><text x="-2959.88" y="474.62"><tspan x="-2959.88" y="474.62"/></text><g fill-rule="evenodd"><path d="m471.93 253.06c0 120.9-98.01 218.9-218.9 218.9-120.9 0-218.9-98.01-218.9-218.9 0-120.9 98.01-218.9 218.9-218.9 120.9 0 218.9 98.01 218.9 218.9" fill="#bf3536"/><g transform="matrix(3.5433 0 0 3.5433 -.004 0)"><path d="m72.25.282c-39.746 0-71.967 32.22-71.967 71.967 0 39.746 32.22 71.967 71.967 71.967 39.746 0 71.967-32.22 71.967-71.967 0-39.746-32.22-71.967-71.967-71.967m2.491 12.681c34.12 0 61.777 27.657 61.777 61.777s-27.657 61.777-61.777 61.777-61.786-27.657-61.786-61.777 27.666-61.777 61.786-61.777" fill-opacity=".067"/><g fill-opacity=".129"><path d="m72.25 1.251c-39.21 0-70.998 31.787-70.998 70.998 0 39.21 31.787 70.998 70.998 70.998 39.21 0 70.998-31.787 70.998-70.998 0-39.21-31.787-70.998-70.998-70.998m1.661 10.881c34.12 0 61.777 27.657 61.777 61.777s-27.657 61.777-61.777 61.777-61.786-27.657-61.786-61.777 27.666-61.777 61.786-61.777"/><path d="m72.25 2.358c-38.6 0-69.891 31.29-69.891 69.891 0 38.6 31.29 69.891 69.891 69.891 38.6 0 69.891-31.29 69.891-69.891 0-38.6-31.29-69.891-69.891-69.891m.83 8.944c34.12 0 61.777 27.657 61.777 61.777s-27.657 61.777-61.777 61.777-61.786-27.657-61.786-61.777 27.666-61.777 61.786-61.777"/></g><path d="m71.41 2.218c-38.22 0-69.2 30.981-69.2 69.2 0 38.22 30.981 69.2 69.2 69.2 38.22 0 69.2-30.981 69.2-69.2 0-38.22-30.981-69.2-69.2-69.2zm0 7.422c34.12 0 61.777 27.657 61.777 61.777s-27.657 61.777-61.777 61.777-61.786-27.657-61.786-61.777 27.666-61.777 61.786-61.777" fill="#fff" stroke="#000" stroke-opacity=".31" stroke-width="1.384"/></g></g><text x="729.63" y="231.34"><tspan x="729.63" y="231.34"/></text><text transform="scale(4.0128 .2492)" x="378.92" y="579.26"/><text x="1310.91" y="151.36"><tspan x="1310.91" y="151.36"/></text><text transform="scale(4.0128 .2492)" x="523.77" y="258.22"/><text x="239.31" y="-29.902"><tspan x="239.31" y="-29.902"/></text><text transform="scale(4.0128 .2492)" x="256.71" y="-469.13"/><text x="1337.38" y="-246.37"><tspan x="1337.38" y="-246.37"/></text><text transform="scale(4.0128 .2492)" x="530.36" y="-1337.81"/><text x="1918.66" y="-326.37"><tspan x="1918.66" y="-326.37"/></text><text transform="scale(4.0128 .2492)" x="675.21" y="-1658.83"/><text x="1529.54" y="-798.77"><tspan x="1529.54" y="-798.77"/></text><text transform="scale(4.0128 .2492)" x="578.23" y="-3554.49"/><text x="2110.78" y="-878.78"><tspan x="2110.78" y="-878.78"/></text><text transform="scale(4.0128 .2492)" x="723.08" y="-3875.51"/><text x="277.97" y="535.92"><tspan x="277.97" y="535.92"/></text><text x="1313.23" y="100.11"><tspan x="1313.23" y="100.11"/></text><text transform="scale(4.0128 .2492)" x="524.34" y="52.56"/><text x="1894.5" y="20.11"><tspan x="1894.5" y="20.11"/></text><text transform="scale(4.0128 .2492)" x="669.19" y="-268.48"/><text x="822.92" y="-161.15"><tspan x="822.92" y="-161.15"/></text><text transform="scale(4.0128 .2492)" x="402.15" y="-995.83"/><text x="1920.97" y="-377.62"><tspan x="1920.97" y="-377.62"/></text><text transform="scale(4.0128 .2492)" x="675.79" y="-1864.49"/><text x="2502.24" y="-457.62"><tspan x="2502.24" y="-457.62"/></text><text transform="scale(4.0128 .2492)" x="820.64" y="-2185.52"/><text x="2113.12" y="-930.02"><tspan x="2113.12" y="-930.02"/></text><text transform="scale(4.0128 .2492)" x="723.67" y="-4081.16"/><text x="2694.38" y="-1010.03"><tspan x="2694.38" y="-1010.03"/></text><text transform="scale(4.0128 .2492)" x="868.52" y="-4402.2"/><g transform="translate(583.59 -131.25)"><text x="277.99" y="535.94"><tspan x="277.99" y="535.94"/></text><text x="89.64" y="159.96"><tspan x="89.64" y="159.96"/></text></g><text transform="scale(4.0128 .2492)" x="364.85" y="-233.97"/><text x="1254.5" y="-51.3"><tspan x="1254.5" y="-51.3"/></text><text transform="scale(4.0128 .2492)" x="509.7" y="-555.01"/><text x="182.92" y="-232.55"><tspan x="182.92" y="-232.55"/></text><text transform="scale(4.0128 .2492)" x="242.66" y="-1282.35"/><text x="1280.97" y="-449.02"><tspan x="1280.97" y="-449.02"/></text><text transform="scale(4.0128 .2492)" x="516.3" y="-2151.02"/><text x="1862.24" y="-529.03"><tspan x="1862.24" y="-529.03"/></text><text transform="scale(4.0128 .2492)" x="661.15" y="-2472.05"/><text x="1473.12" y="-1001.43"><tspan x="1473.12" y="-1001.43"/></text><text transform="scale(4.0128 .2492)" x="564.18" y="-4367.69"/><text x="2054.39" y="-1081.43"><tspan x="2054.39" y="-1081.43"/></text><text transform="scale(4.0128 .2492)" x="709.03" y="-4688.72"/><g transform="translate(-56.41 -205.03)"><text x="277.99" y="538.32"><tspan x="277.99" y="538.32"/></text><text x="3833.78" y="-509.14"><tspan x="3833.78" y="-509.14"/></text></g><text transform="scale(4.0128 .2492)" x="1138.4" y="-3214.98"/><text x="4358.64" y="-794.17"><tspan x="4358.64" y="-794.17"/></text><text transform="scale(4.0128 .2492)" x="1283.24" y="-3536"/><text x="3287.06" y="-975.42"><tspan x="3287.06" y="-975.42"/></text><text transform="scale(4.0128 .2492)" x="1016.21" y="-4263.36"/><text x="4385.11" y="-1191.9"><tspan x="4385.11" y="-1191.9"/></text><text transform="scale(4.0128 .2492)" x="1289.84" y="-5132.02"/><text x="4966.38" y="-1271.9"><tspan x="4966.38" y="-1271.9"/></text><text transform="scale(4.0128 .2492)" x="1434.69" y="-5453.04"/><text x="4577.26" y="-1744.3"><tspan x="4577.26" y="-1744.3"/></text><text transform="scale(4.0128 .2492)" x="1337.72" y="-7348.69"/><text x="5158.52" y="-1824.3"><tspan x="5158.52" y="-1824.3"/></text><text transform="scale(4.0128 .2492)" x="1482.57" y="-7669.72"/><g transform="translate(583.59 -131.25)"><text x="2742.13" y="-278.34"><tspan x="2742.13" y="-278.34"/></text><text x="-549.88" y="66.88"><tspan x="-549.88" y="66.88"/></text></g><text transform="scale(4.0128 .2492)" x="205.48" y="-607.48"/><text x="614.99" y="-144.37"><tspan x="614.99" y="-144.37"/></text><text transform="scale(4.0128 .2492)" x="350.33" y="-928.51"/><text x="-456.6" y="-325.63"><tspan x="-456.6" y="-325.63"/></text><text transform="scale(4.0128 .2492)" x="83.29" y="-1655.86"/><text x="641.46" y="-542.1"><tspan x="641.46" y="-542.1"/></text><text transform="scale(4.0128 .2492)" x="356.93" y="-2524.52"/><text x="1222.72" y="-622.11"><tspan x="1222.72" y="-622.11"/></text><text transform="scale(4.0128 .2492)" x="501.78" y="-2845.56"/><text x="833.6" y="-1094.51"><tspan x="833.6" y="-1094.51"/></text><text transform="scale(4.0128 .2492)" x="404.81" y="-4741.2"/><text x="1414.86" y="-1174.51"><tspan x="1414.86" y="-1174.51"/></text><text transform="scale(4.0128 .2492)" x="549.66" y="-5062.23"/><g transform="translate(583.59 -131.25)"><text x="-1001.53" y="371.46"><tspan x="-1001.53" y="371.46"/></text><text x="-3225.36" y="352.5"><tspan x="-3225.36" y="352.5"/></text></g><text transform="scale(4.0128 .2492)" x="-340.61" y="324.92"/><text x="-1935.43" y="65.62"><tspan x="-1935.43" y="65.62"/></text><text transform="scale(4.0128 .2492)" x="-164.59" y="-299.6"/><text x="-1902.06" y="57.5"><tspan x="-1902.06" y="57.5"/></text><text transform="scale(4.0128 .2492)" x="-156.27" y="-332.2"/><text x="-751.64" y="-96.91"><tspan x="-751.64" y="-96.91"/></text><text transform="scale(4.0128 .2492)" x="9.773" y="-738.06"/><text x="-170.38" y="-176.91"><tspan x="-170.38" y="-176.91"/></text><text transform="scale(4.0128 .2492)" x="154.62" y="-1059.1"/><text x="-1241.96" y="-358.17"><tspan x="-1241.96" y="-358.17"/></text><text transform="scale(4.0128 .2492)" x="-112.42" y="-1786.43"/><text x="-143.91" y="-574.64"><tspan x="-143.91" y="-574.64"/></text><text transform="scale(4.0128 .2492)" x="161.22" y="-2655.1"/><text x="437.36" y="-654.64"><tspan x="437.36" y="-654.64"/></text><text transform="scale(4.0128 .2492)" x="306.06" y="-2976.13"/><text x="48.24" y="-1127.04"><tspan x="48.24" y="-1127.04"/></text><text transform="scale(4.0128 .2492)" x="209.1" y="-4871.76"/><text x="629.51" y="-1207.05"><tspan x="629.51" y="-1207.05"/></text><text transform="scale(4.0128 .2492)" x="353.94" y="-5192.8"/><g transform="translate(583.59 -131.25)"><text x="-1786.89" y="338.92"><tspan x="-1786.89" y="338.92"/></text><text x="-1385.68" y="-704.67"><tspan x="-1385.68" y="-704.67"/></text></g><text transform="scale(4.0128 .2492)" x="-2.797" y="-3703.55"/><text x="-220.82" y="-915.92"><tspan x="-220.82" y="-915.92"/></text><text transform="scale(4.0128 .2492)" x="142.05" y="-4024.57"/><text x="-1292.4" y="-1097.18"><tspan x="-1292.4" y="-1097.18"/></text><text transform="scale(4.0128 .2492)" x="-124.99" y="-4751.93"/><text x="-194.35" y="-1313.65"><tspan x="-194.35" y="-1313.65"/></text><text transform="scale(4.0128 .2492)" x="148.65" y="-5620.58"/><text x="386.91" y="-1393.66"><tspan x="386.91" y="-1393.66"/></text><text transform="scale(4.0128 .2492)" x="293.49" y="-5941.62"/><text x="-2.207" y="-1866.06"><tspan x="-2.207" y="-1866.06"/></text><text transform="scale(4.0128 .2492)" x="196.53" y="-7837.25"/><text x="579.07" y="-1946.06"><tspan x="579.07" y="-1946.06"/></text><text transform="scale(4.0128 .2492)" x="341.37" y="-8158.27"/><g transform="translate(583.59 -131.25)"><text x="-1837.34" y="-400.09"><tspan x="-1837.34" y="-400.09"/></text><text x="1718.46" y="-1447.55"><tspan x="1718.46" y="-1447.55"/></text></g><text transform="scale(4.0128 .2492)" x="770.74" y="-6684.54"/><text x="2883.31" y="-1658.8"><tspan x="2883.31" y="-1658.8"/></text><text transform="scale(4.0128 .2492)" x="915.59" y="-7005.58"/><text x="1811.73" y="-1840.05"><tspan x="1811.73" y="-1840.05"/></text><text transform="scale(4.0128 .2492)" x="648.55" y="-7732.91"/><text x="2909.78" y="-2056.53"><tspan x="2909.78" y="-2056.53"/></text><text transform="scale(4.0128 .2492)" x="922.19" y="-8601.57"/><text x="3491.05" y="-2136.53"><tspan x="3491.05" y="-2136.53"/></text><text transform="scale(4.0128 .2492)" x="1067.04" y="-8922.61"/><text x="3101.93" y="-2608.93"><tspan x="3101.93" y="-2608.93"/></text><text transform="scale(4.0128 .2492)" x="970.07" y="-10818.24"/><text x="3683.2" y="-2688.93"><tspan x="3683.2" y="-2688.93"/></text><text transform="scale(4.0128 .2492)" x="1114.92" y="-11139.27"/><g transform="translate(583.59 -131.25)"><text x="1266.8" y="-1142.97"><tspan x="1266.8" y="-1142.97"/></text><text x="-3275.81" y="-388.89"><tspan x="-3275.81" y="-388.89"/></text></g><text transform="scale(4.0128 .2492)" x="-353.18" y="-2650.13"/><text x="-2692.22" y="-520.14"><tspan x="-2692.22" y="-520.14"/></text><text transform="scale(4.0128 .2492)" x="-353.18" y="-2650.13"/><text x="-3025.77" y="112.77"><tspan x="-3025.77" y="112.77"/></text><text transform="scale(4.0128 .2492)" x="-436.29" y="-110.38"/><text x="-2319.43" y="-42.864"><tspan x="-2319.43" y="-42.864"/></text><text transform="scale(4.0128 .2492)" x="-260.28" y="-734.89"/><text x="1313.23" y="100.11"><tspan x="1313.23" y="100.11"/></text><text transform="scale(4.0128 .2492)" x="524.34" y="52.55"/><text x="1894.5" y="20.11"><tspan x="1894.5" y="20.11"/></text><text transform="scale(4.0128 .2492)" x="669.19" y="-268.48"/><text x="822.92" y="-161.16"><tspan x="822.92" y="-161.16"/></text><text transform="scale(4.0128 .2492)" x="402.15" y="-995.84"/><text x="1920.97" y="-377.62"><tspan x="1920.97" y="-377.62"/></text><text transform="scale(4.0128 .2492)" x="675.79" y="-1864.5"/><text x="2502.24" y="-457.63"><tspan x="2502.24" y="-457.63"/></text><text transform="scale(4.0128 .2492)" x="820.64" y="-2185.54"/><text x="2113.12" y="-930.03"><tspan x="2113.12" y="-930.03"/></text><text transform="scale(4.0128 .2492)" x="723.67" y="-4081.19"/><text x="2694.38" y="-1010.03"><tspan x="2694.38" y="-1010.03"/></text><text transform="scale(4.0128 .2492)" x="868.52" y="-4402.22"/><g transform="translate(583.59 -131.25)"><text x="277.99" y="535.94"><tspan x="277.99" y="535.94"/></text><text x="-1945.84" y="516.98"><tspan x="-1945.84" y="516.98"/></text></g><text transform="scale(4.0128 .2492)" x="-21.747" y="984.95"/><text x="-655.91" y="230.1"><tspan x="-655.91" y="230.1"/></text><text transform="scale(4.0128 .2492)" x="154.27" y="360.43"/><text x="-622.54" y="221.98"><tspan x="-622.54" y="221.98"/></text><text transform="scale(4.0128 .2492)" x="162.59" y="327.83"/><text x="527.88" y="67.57"><tspan x="527.88" y="67.57"/></text><text transform="scale(4.0128 .2492)" x="328.63" y="-78.03"/><text x="1109.14" y="-12.434"><tspan x="1109.14" y="-12.434"/></text><text transform="scale(4.0128 .2492)" x="473.48" y="-399.07"/><text x="37.563" y="-193.69"><tspan x="37.563" y="-193.69"/></text><text transform="scale(4.0128 .2492)" x="206.44" y="-1126.41"/><text x="1135.61" y="-410.16"><tspan x="1135.61" y="-410.16"/></text><text transform="scale(4.0128 .2492)" x="480.08" y="-1995.08"/><text x="1716.88" y="-490.16"><tspan x="1716.88" y="-490.16"/></text><text transform="scale(4.0128 .2492)" x="624.92" y="-2316.11"/><text x="1327.76" y="-962.56"><tspan x="1327.76" y="-962.56"/></text><text transform="scale(4.0128 .2492)" x="527.96" y="-4211.75"/><text x="1909.02" y="-1042.57"><tspan x="1909.02" y="-1042.57"/></text><text transform="scale(4.0128 .2492)" x="672.8" y="-4532.79"/><g transform="translate(583.59 -131.25)"><text x="-507.37" y="503.4"><tspan x="-507.37" y="503.4"/></text><text x="-106.16" y="-540.19"><tspan x="-106.16" y="-540.19"/></text></g><text transform="scale(4.0128 .2492)" x="316.06" y="-3043.54"/><text x="1058.7" y="-751.44"><tspan x="1058.7" y="-751.44"/></text><text transform="scale(4.0128 .2492)" x="460.91" y="-3364.56"/><text x="-12.877" y="-932.7"><tspan x="-12.877" y="-932.7"/></text><text transform="scale(4.0128 .2492)" x="193.87" y="-4091.92"/><text x="1085.17" y="-1149.17"><tspan x="1085.17" y="-1149.17"/></text><text transform="scale(4.0128 .2492)" x="467.51" y="-4960.58"/><text x="1666.43" y="-1229.18"><tspan x="1666.43" y="-1229.18"/></text><text transform="scale(4.0128 .2492)" x="612.35" y="-5281.62"/><text x="1277.31" y="-1701.58"><tspan x="1277.31" y="-1701.58"/></text><text transform="scale(4.0128 .2492)" x="515.39" y="-7177.26"/><text x="1858.58" y="-1781.58"><tspan x="1858.58" y="-1781.58"/></text><text transform="scale(4.0128 .2492)" x="660.23" y="-7498.28"/><g transform="translate(583.59 -131.25)"><text x="-557.82" y="-235.61"><tspan x="-557.82" y="-235.61"/></text><text x="2997.98" y="-1283.07"><tspan x="2997.98" y="-1283.07"/></text></g><text transform="scale(4.0128 .2492)" x="1089.6" y="-6024.54"/><text x="4162.83" y="-1494.32"><tspan x="4162.83" y="-1494.32"/></text><text transform="scale(4.0128 .2492)" x="1234.45" y="-6345.58"/><text x="3091.25" y="-1675.57"><tspan x="3091.25" y="-1675.57"/></text><text transform="scale(4.0128 .2492)" x="967.41" y="-7072.92"/><text x="4189.3" y="-1892.05"><tspan x="4189.3" y="-1892.05"/></text><text transform="scale(4.0128 .2492)" x="1241.05" y="-7941.58"/><text x="4770.57" y="-1972.05"><tspan x="4770.57" y="-1972.05"/></text><text transform="scale(4.0128 .2492)" x="1385.9" y="-8262.62"/><text x="4381.45" y="-2444.45"><tspan x="4381.45" y="-2444.45"/></text><text transform="scale(4.0128 .2492)" x="1288.93" y="-10158.26"/><text x="4962.72" y="-2524.45"><tspan x="4962.72" y="-2524.45"/></text><text transform="scale(4.0128 .2492)" x="1433.78" y="-10479.29"/><g transform="translate(583.59 -131.25)"><text x="2546.32" y="-978.49"><tspan x="2546.32" y="-978.49"/></text><text x="-1996.29" y="-224.41"><tspan x="-1996.29" y="-224.41"/></text></g><text transform="scale(4.0128 .2492)" x="-34.32" y="-1990.11"/><text x="-1412.7" y="-355.66"><tspan x="-1412.7" y="-355.66"/></text><text transform="scale(4.0128 .2492)" x="-34.32" y="-1990.11"/><text x="-1637.77" y="199.15"><tspan x="-1637.77" y="199.15"/></text><text transform="scale(4.0128 .2492)" x="-90.41" y="236.25"/><text x="-931.43" y="43.516"><tspan x="-931.43" y="43.516"/></text><text transform="scale(4.0128 .2492)" x="85.61" y="-388.27"/><path d="m254.22 106.3c-12.326.05-24.12 1.131-34.502 2.928-30.554 5.365-36.15 16.498-36.15 37.12v27.26l9.04 9.04h-36.15c-21.01 0-39.38 12.521-45.13 36.25-6.625 27.2-6.974 44.19 0 72.55 2.58 10.666 6.975 19.782 13.391 26.2l58.35 58.35c1.611 3.653 3.949 6.908 6.83 9.789l85.09 85.09c103.69-10.33 186.06-93.01 195.93-196.84l-150.27-150.27c-7.473-7.473-18.15-12.626-28.895-14.387-12.306-2.035-25.13-2.962-37.38-2.924h-.002l-.156-.156" opacity=".25"/><path d="m254.23 106.3c-12.326.05-24.12 1.13-34.504 2.927-30.554 5.365-36.15 16.5-36.15 37.12v27.26h72.24v9.04h-99.35c-21.01 0-39.38 12.52-45.13 36.25-6.625 27.2-6.974 44.19 0 72.55 5.115 21.15 17.358 36.2 38.35 36.2h21.257v-36.15c0-23.542 20.668-44.21 45.18-44.21h75.63c20.07 0 39.07-16.377 39.07-36.3v-64.49c0-19.35-19.436-33.904-39.07-37.12-12.376-2.046-25.27-2.977-37.585-2.927l.051-.154m-39.07 21.873c7.461 0 13.555 6.149 13.555 13.709 0 7.511-6.094 13.555-13.555 13.555-7.511 0-13.606-6.04-13.606-13.555 0-7.548 6.05-13.709 13.606-13.709m125.95 54.48v31.731c0 24.565-21.1 42.36-45.13 42.36h-79.23c-19.737 0-36.15 19.678-36.15 39.23v68.03c0 19.35 17.03 30.698 36.15 36.25 22.856 6.625 47.719 7.897 75.07 0 18.18-5.215 36.15-15.689 36.15-36.25v-27.26h-72.14v-9.04h108.29c20.96 0 28.836-14.566 36.15-36.25 7.548-22.369 7.161-43.906 0-72.55-5.215-20.71-15.14-36.2-36.15-36.2l-23-.051m-44.67 172.31c7.461 0 13.555 5.993 13.555 13.504s-6.04 13.709-13.555 13.709c-7.511 0-13.606-6.199-13.606-13.709s6.096-13.504 13.606-13.504" fill="#fff"/></svg>